<?xml version="1.0" encoding="utf-8"?>
<!-- Generator: Adobe Illustrator 23.1.1, SVG Export Plug-In . SVG Version: 6.00 Build 0)  -->
<svg version="1.1" xmlns="http://www.w3.org/2000/svg" xmlns:xlink="http://www.w3.org/1999/xlink" x="0px" y="0px"
	 viewBox="0 0 100 100" style="enable-background:new 0 0 100 100;" xml:space="preserve">
<g id="Layer_2">
</g>
<g id="Layer_1">
	<g>
		<path d="M66.2,47.4L42.5,31.6c-2.1-1.3-4.7,0.1-4.7,2.6v31.7c0,2.5,2.8,3.9,4.7,2.6l23.8-15.8C68.1,51.3,68.1,48.7,66.2,47.4z"/>
		<path d="M50,1.2C23.1,1.2,1.2,23.1,1.2,50S23.1,98.8,50,98.8S98.8,76.9,98.8,50S76.9,1.2,50,1.2z M50,91.2
			C27.3,91.2,8.8,72.7,8.8,50S27.3,8.8,50,8.8S91.2,27.3,91.2,50S72.7,91.2,50,91.2z"/>
	</g>
</g>
</svg>
